<?xml version="1.0" encoding="UTF-8"?>
<svg width="140px" height="36px" viewBox="0 0 140 36" version="1.1" xmlns="http://www.w3.org/2000/svg" xmlns:xlink="http://www.w3.org/1999/xlink">
    <title>Card</title>
    <g id="Designs" stroke="none" stroke-width="1" fill="none" fill-rule="evenodd">
        <g id="Screen-04" transform="translate(-30.000000, -351.000000)" fill="#FFFFFF" fill-rule="nonzero">
            <g id="Hero" transform="translate(0.000000, 64.000000)">
                <g id="Card" transform="translate(16.000000, 32.000000)">
                    <g id="download-on-the-app-store" transform="translate(0.000000, 244.000000)">
                        <g id="Card" transform="translate(13.999385, 11.811944)">
                            <g transform="translate(0.000000, 0.396577)">
                                <path d="M20.7743938,16.2125213 C20.8050795,13.8374698 22.0537152,11.6436447 24.0828395,10.3996562 C22.7969414,8.56831203 20.7203594,7.44882749 18.4795295,7.37891402 C16.1219938,7.13215082 13.8364656,8.78567145 12.6351085,8.78567145 C11.4105023,8.78567145 9.56082431,7.40341394 7.56902644,7.44427981 C4.94833982,7.52871132 2.56437639,8.97852849 1.28935904,11.2632854 C-1.42584194,15.9510582 0.599453704,22.8405058 3.20038881,26.6297475 C4.50169169,28.4852314 6.02254119,30.5578547 8.01254203,30.4843549 C9.95987743,30.4038132 10.6871694,29.246087 13.0377697,29.246087 C15.366553,29.246087 16.0489052,30.4843549 18.079283,30.4376231 C20.1688646,30.4037992 21.4854002,28.5738931 22.7410473,26.7008392 C23.6760312,25.3787391 24.3954999,23.9175306 24.8728029,22.3713393 C22.3910146,21.3246065 20.7772904,18.8996087 20.7743938,16.2125213 L20.7743938,16.2125213 Z" id="_Path_"></path>
                                <path d="M16.939376,4.88685212 C18.0787026,3.52296522 18.6400057,1.76991968 18.5040842,0 C16.7634464,0.18230809 15.1555847,1.01188826 14.0008658,2.32344645 C12.8606341,3.61747488 12.2829953,5.31041049 12.3951768,7.02937715 C14.1591545,7.04748857 15.8340141,6.25781617 16.939376,4.88685212 L16.939376,4.88685212 Z" id="_Path_2"></path>
                            </g>
                            <g transform="translate(34.334099, 13.207613)">
                                <path d="M11.0559502,12.9760118 L4.41058707,12.9760118 L2.81471155,17.6750266 L0,17.6750266 L6.29438059,0.289883058 L9.21876717,0.289883058 L15.5131478,17.6750266 L12.6504358,17.6750266 L11.0559502,12.9760118 Z M5.09883577,10.8076569 L10.3663818,10.8076569 L7.76965851,3.18150366 L7.69699109,3.18150366 L5.09883577,10.8076569 Z" id="Shape"></path>
                                <path d="M29.1068703,11.3381292 C29.1068703,15.2769883 26.9927479,17.8076341 23.8023728,17.8076341 C22.1532957,17.8936563 20.5999552,17.0323316 19.8030951,15.5900413 L19.7427261,15.5900413 L19.7427261,21.8681529 L17.1336623,21.8681529 L17.1336623,4.99985975 L19.6591361,4.99985975 L19.6591361,7.1080569 L19.7071224,7.1080569 C20.5393839,5.67480864 22.0943994,4.81385473 23.7543864,4.86723818 C26.9803512,4.86725218 29.1068703,7.41020392 29.1068703,11.3381292 Z M26.425139,11.3381292 C26.425139,8.77193749 25.095238,7.08481697 23.0661237,7.08481697 C21.0726551,7.08481697 19.7317895,8.80746938 19.7317895,11.3381292 C19.7317895,13.8920289 21.0726551,15.6023753 23.0661237,15.6023753 C25.0952521,15.6023753 26.425139,13.9275747 26.425139,11.3381292 Z" id="Shape"></path>
                                <path d="M43.0968099,11.3381292 C43.0968099,15.2769883 40.9826876,17.8076341 37.7923124,17.8076341 C36.1432354,17.8936563 34.5898949,17.0323316 33.7930348,15.5900413 L33.7326658,15.5900413 L33.7326658,21.8681529 L31.1236019,21.8681529 L31.1236019,4.99985975 L33.6490196,4.99985975 L33.6490196,7.1080569 L33.697006,7.1080569 C34.5292735,5.67480951 36.0842949,4.81386066 37.744284,4.86725218 C40.9703471,4.86725218 43.0968099,7.41020392 43.0968099,11.3381292 Z M40.4150927,11.3381292 C40.4150927,8.77193749 39.0851777,7.08481697 37.0560634,7.08481697 C35.0625948,7.08481697 33.7217292,8.80746938 33.7217292,11.3381292 C33.7217292,13.8920289 35.0625948,15.6023753 37.0560634,15.6023753 C39.0851917,15.6023753 40.4150927,13.9275747 40.4150927,11.3381292 L40.4150927,11.3381292 Z" id="Shape"></path>
                                <path d="M52.3430099,12.8310843 C52.5363311,14.5551087 54.2158528,15.687075 56.5109276,15.687075 C58.7100579,15.687075 60.292217,14.5550527 60.292217,13.0005537 C60.292217,11.6511401 59.3379797,10.8431608 57.0785366,10.2894346 L54.8190935,9.74665632 C51.6177536,8.97556683 50.1315531,7.48259768 50.1315531,5.05994756 C50.1315531,2.0603453 52.7529575,0 56.4752818,0 C60.1591947,0 62.6846545,2.0603453 62.7696624,5.05994756 L60.1358894,5.05994756 C59.9782281,3.32498919 58.5400139,2.2777366 56.4382321,2.2777366 C54.3364504,2.2777366 52.8982502,3.33730915 52.8982502,4.87948814 C52.8982502,6.10858615 53.8168418,6.8318238 56.0639443,7.38548 L57.9847455,7.85579447 C61.561749,8.69934773 63.0479495,10.1321871 63.0479495,12.6751108 C63.0479495,15.9276362 60.4498503,17.9647416 56.3175784,17.9647416 C52.451281,17.9647416 49.8408553,15.9754881 49.6722152,12.8309583 L52.3430099,12.8310843 Z" id="Path"></path>
                                <path d="M68.6787765,2.0002575 L68.6787765,4.99985975 L71.095895,4.99985975 L71.095895,7.06020505 L68.6787765,7.06020505 L68.6787765,14.0478763 C68.6787765,15.1334188 69.1627534,15.6392792 70.2252898,15.6392792 C70.5122412,15.6342895 70.7987281,15.6141949 71.0835545,15.5790794 L71.0835545,17.6271187 C70.6058368,17.7161298 70.120277,17.7564426 69.6343756,17.7474343 C67.0609716,17.7474343 66.0573721,16.7835655 66.0573721,14.3253694 L66.0573721,7.06020505 L64.2092384,7.06020505 L64.2092384,4.99985975 L66.057344,4.99985975 L66.057344,2.0002575 L68.6787765,2.0002575 Z" id="Path"></path>
                                <path d="M72.4957679,11.3381292 C72.4957679,7.35006011 74.8511837,4.84401226 78.5241739,4.84401226 C82.2094906,4.84401226 84.5539417,7.35000411 84.5539417,11.3381292 C84.5539417,15.3371462 82.2218312,17.832246 78.5241739,17.832246 C74.8278223,17.832246 72.4957679,15.3371322 72.4957679,11.3381292 Z M81.8955157,11.3381292 C81.8955157,8.60239804 80.6382822,6.98775529 78.5241598,6.98775529 C76.4100375,6.98775529 75.1541799,8.614704 75.1541799,11.3381292 C75.1541799,14.0847942 76.4100375,15.687145 78.5241598,15.687145 C80.6382822,15.687145 81.8955157,14.0847942 81.8955157,11.3381292 L81.8955157,11.3381292 Z" id="Shape"></path>
                                <path d="M86.7050155,4.99985975 L89.1934396,4.99985975 L89.1934396,7.15725274 L89.2538086,7.15725274 C89.6008265,5.76844102 90.876938,4.81261254 92.3111895,4.86722418 C92.6118608,4.86617731 92.9117026,4.89873912 93.2050999,4.96429987 L93.2050999,7.39788396 C92.8255207,7.28222098 92.4295543,7.22911631 92.0328182,7.24066447 C91.2657784,7.20963418 90.5234541,7.5144682 90.0007577,8.07512612 C89.4780612,8.63578404 89.2272133,9.3962525 89.3140793,10.156855 L89.3140793,17.6749986 L86.7050155,17.6749986 L86.7050155,4.99985975 Z" id="Path"></path>
                                <path d="M105.234437,13.9521727 C104.883454,16.2531352 102.636338,17.832232 99.7612994,17.832232 C96.0636422,17.832232 93.7685533,15.3617301 93.7685533,11.398273 C93.7685533,7.42250988 96.0759827,4.84399826 99.6516244,4.84399826 C103.168301,4.84399826 105.379772,7.25297043 105.379772,11.0961259 L105.379772,11.987531 L96.4022982,11.987531 L96.4022982,12.1447505 C96.3184799,13.0883917 96.6452365,14.0224656 97.2994516,14.7093741 C97.9536667,15.3962825 98.8722852,15.7698194 99.8216404,15.7349689 C101.087764,15.8532679 102.281471,15.1282636 102.757006,13.9521587 L105.234437,13.9521727 Z M96.414614,10.169189 L102.769332,10.169189 C102.81668,9.3212502 102.507157,8.49206872 101.915336,7.88140255 C101.323514,7.27073638 100.503053,6.93395404 99.6516244,6.95219541 C98.7934605,6.94708854 97.9688045,7.28402881 97.3609516,7.88812491 C96.7530987,8.49222101 96.4124153,9.31341782 96.414614,10.169189 L96.414614,10.169189 Z" id="Shape"></path>
                            </g>
                            <g transform="translate(36.080097, 0.000000)">
                                <g transform="translate(0.000000, 0.000000)">
                                    <path d="M3.02584861,0.411598662 C4.1334745,0.332336774 5.21836956,0.752563954 5.9819237,1.55661549 C6.74547785,2.36066702 7.10720826,3.46379145 6.96755108,4.56236117 C6.96755108,7.2311025 5.52112393,8.76514751 3.02584861,8.76514751 L0,8.76514751 L0,0.411598662 L3.02584861,0.411598662 Z M1.3010923,7.58377535 L2.88051376,7.58377535 C3.67208041,7.63095801 4.44283047,7.31995882 4.97875553,6.73713061 C5.51468059,6.1543024 5.75872452,5.36169476 5.64312546,4.57938512 C5.75031415,3.800322 5.50275572,3.01425491 4.96815945,2.43617966 C4.43356319,1.85810441 3.66787384,1.54851579 2.88051376,1.59208883 L1.3010923,1.59208883 L1.3010923,7.58377535 Z" id="Shape"></path>
                                    <path d="M8.43728347,5.61025777 C8.32888199,4.48030051 8.87222619,3.3867457 9.83943899,2.78822725 C10.8066518,2.1897088 12.0305049,2.1897088 12.9977177,2.78822725 C13.9649305,3.3867457 14.5082747,4.48030051 14.3998732,5.61025777 C14.5103372,6.74142926 13.9674889,7.83710506 12.9994185,8.436912 C12.0313482,9.03671894 10.8058086,9.03671894 9.83773817,8.436912 C8.86966778,7.83710506 8.32681952,6.74142926 8.43728347,5.61025777 Z M13.1165968,5.61025777 C13.1165968,4.24376421 12.5009875,3.4446468 11.4206351,3.4446468 C10.3361552,3.4446468 9.72609138,4.24376421 9.72609138,5.61027177 C9.72609138,6.98771329 10.3361973,7.78067071 11.4206351,7.78067071 C12.5010156,7.78067071 13.1165968,6.98222531 13.1165968,5.61025777 L13.1165968,5.61025777 Z" id="Shape"></path>
                                    <polygon id="Path" points="22.3257751 8.76502151 21.031534 8.76502151 19.7249524 4.1220626 19.626242 4.1220626 18.3251357 8.76502151 17.0432211 8.76502151 15.3006489 2.46094 16.5661094 2.46094 17.6985757 7.27132437 17.7918107 7.27132437 19.0915412 2.46094 20.2884478 2.46094 21.5881783 7.27132437 21.6868886 7.27132437 22.8138655 2.46094 24.0614962 2.46094"></polygon>
                                    <path d="M25.527115,2.46094 L26.7281352,2.46094 L26.7281352,3.46239875 L26.8213702,3.46239875 C27.1455866,2.72506026 27.9031866,2.27402307 28.7079014,2.3392524 C29.3309892,2.29253703 29.9415711,2.53089764 30.3672497,2.98703319 C30.7929282,3.44316874 30.9875092,4.06758004 30.8960529,4.68396478 L30.8960529,8.76495151 L29.6484223,8.76495151 L29.6484223,4.99638776 C29.6484223,3.98330905 29.2069564,3.47949269 28.2842514,3.47949269 C27.8616205,3.45986352 27.4514683,3.62526382 27.1613243,3.93233072 C26.8711803,4.23939762 26.7299814,4.65750628 26.7747457,5.0770415 L26.7747457,8.76502151 L25.527115,8.76502151 L25.527115,2.46094 Z" id="Path"></path>
                                    <polygon id="Path" points="32.8840461 0 34.1316768 0 34.1316768 8.76500751 32.8840461 8.76500751"></polygon>
                                    <path d="M35.8660219,5.61025777 C35.7577037,4.48022659 36.3011336,3.3866441 37.2684182,2.78811642 C38.2357028,2.18958874 39.4596188,2.18958874 40.4269034,2.78811642 C41.394188,3.3866441 41.9376179,4.48022659 41.8292996,5.61025777 C41.9396233,6.74146975 41.3966756,7.8371146 40.4285571,8.43689512 C39.4604387,9.03667564 38.2348829,9.03667564 37.2667644,8.43689512 C36.298646,7.8371146 35.7556983,6.74146975 35.8660219,5.61025777 L35.8660219,5.61025777 Z M40.5453353,5.61025777 C40.5453353,4.24376421 39.9297259,3.4446468 38.8493736,3.4446468 C37.7648937,3.4446468 37.1548298,4.24376421 37.1548298,5.61027177 C37.1548298,6.98771329 37.7649358,7.78067071 38.8493736,7.78067071 C39.92974,7.78067071 40.5453353,6.98222531 40.5453353,5.61025777 L40.5453353,5.61025777 Z" id="Shape"></path>
                                    <path d="M43.1427465,6.98222531 C43.1427465,5.847459 43.9900465,5.19326912 45.4940488,5.10029542 L47.2064646,5.00186174 L47.2064646,4.45772551 C47.2064646,3.79190168 46.7649987,3.4159329 45.9122234,3.4159329 C45.2157477,3.4159329 44.7331467,3.67091407 44.594663,4.11661662 L43.3867917,4.11661662 C43.5142966,3.03380414 44.535712,2.3392804 45.9697986,2.3392804 C47.5547094,2.3392804 48.4486199,3.12607784 48.4486199,4.45772551 L48.4486199,8.76503551 L47.2475997,8.76503551 L47.2475997,7.87910439 L47.1488894,7.87910439 C46.7409755,8.52607916 46.0155719,8.90419959 45.2500177,8.86890118 C44.7133459,8.92456754 44.1781045,8.75124648 43.7766151,8.39178615 C43.3751257,8.03232582 43.144861,7.52027619 43.1427465,6.98222531 L43.1427465,6.98222531 Z M47.2064646,6.44354906 L47.2064646,5.91650677 L45.6626889,6.01494045 C44.7920837,6.07304026 44.3972283,6.3683553 44.3972283,6.9241115 C44.3972283,7.49148765 44.890794,7.82166258 45.56951,7.82166258 C45.9712953,7.86222026 46.3723846,7.73843992 46.68096,7.47865752 C46.9895354,7.21887511 47.1791744,6.84533523 47.2064646,6.44354906 Z" id="Shape"></path>
                                    <path d="M50.0883542,5.61025777 C50.0883542,3.61827424 51.1152589,2.35636034 52.7124962,2.35636034 C53.5190215,2.31930265 54.2744072,2.75025308 54.6511273,3.46235675 L54.7443623,3.46235675 L54.7443623,0 L55.9919929,0 L55.9919929,8.76500751 L54.7964621,8.76500751 L54.7964621,7.76900875 L54.6977518,7.76900875 C54.2925553,8.47520423 53.5278631,8.89887014 52.7125103,8.86890118 C51.1042942,8.86897118 50.0883542,7.60702928 50.0883542,5.61025777 Z M51.3771621,5.61025777 C51.3771621,6.94736542 52.0092115,7.75195681 53.0662726,7.75195681 C54.1178163,7.75195681 54.7677096,6.93575946 54.7677096,5.61573175 C54.7677096,4.30186402 54.1109932,3.47403271 53.0662726,3.47403271 C52.0160205,3.47403271 51.37712,4.28408408 51.37712,5.61025777 L51.3771621,5.61025777 Z" id="Shape"></path>
                                    <path d="M61.1539073,5.61025777 C61.0455058,4.48030051 61.58885,3.3867457 62.5560628,2.78822725 C63.5232756,2.1897088 64.7471287,2.1897088 65.7143415,2.78822725 C66.6815543,3.3867457 67.2248985,4.48030051 67.116497,5.61025777 C67.226961,6.74142926 66.6841127,7.83710506 65.7160423,8.436912 C64.747972,9.03671894 63.5224324,9.03671894 62.554362,8.436912 C61.5862916,7.83710506 61.0434433,6.74142926 61.1539073,5.61025777 L61.1539073,5.61025777 Z M65.8332066,5.61025777 C65.8332066,4.24376421 65.2176113,3.4446468 64.1372589,3.4446468 C63.052779,3.4446468 62.4427152,4.24376421 62.4427152,5.61027177 C62.4427152,6.98771329 63.0528211,7.78067071 64.1372589,7.78067071 C65.2176253,7.78067071 65.8332066,6.98222531 65.8332066,5.61025777 Z" id="Shape"></path>
                                    <path d="M68.7905153,2.46094 L69.9915355,2.46094 L69.9915355,3.46239875 L70.0847705,3.46239875 C70.4089869,2.72506026 71.1665869,2.27402307 71.9713017,2.3392524 C72.5943895,2.29253703 73.2049714,2.53089764 73.63065,2.98703319 C74.0563285,3.44316874 74.2509095,4.06758004 74.1594532,4.68396478 L74.1594532,8.76495151 L72.9118226,8.76495151 L72.9118226,4.99638776 C72.9118226,3.98330905 72.4703567,3.47949269 71.5476517,3.47949269 C71.1250207,3.45986352 70.7148686,3.62526382 70.4247246,3.93233072 C70.1345806,4.23939762 69.9933817,4.65750628 70.038146,5.0770415 L70.038146,8.76502151 L68.7905153,8.76502151 L68.7905153,2.46094 Z" id="Path"></path>
                                    <path d="M81.2092746,0.891419103 L81.2092746,2.48965391 L82.5789348,2.48965391 L82.5789348,3.5376065 L81.2092746,3.5376065 L81.2092746,6.77919797 C81.2092746,7.43954782 81.4821144,7.72870288 82.103185,7.72870288 C82.2621879,7.72819544 82.4210312,7.71860844 82.5789348,7.69998898 L82.5789348,8.73630761 C82.3548809,8.77627848 82.127874,8.79754347 81.900275,8.7998814 C80.5127989,8.7998814 79.9602681,8.31315898 79.9602681,7.09773893 L79.9602681,3.5375505 L78.9566827,3.5375505 L78.9566827,2.48959791 L79.9602681,2.48959791 L79.9602681,0.891419103 L81.2092746,0.891419103 Z" id="Path"></path>
                                    <path d="M84.2831095,0 L85.5197755,0 L85.5197755,3.47401871 L85.6184858,3.47401871 C85.9582759,2.73022711 86.7291352,2.27861515 87.546082,2.34472638 C88.1656316,2.31110868 88.7679481,2.5547169 89.1889741,3.00919762 C89.61,3.46367834 89.805883,4.08169463 89.7232688,4.69491274 L89.7232688,8.76502151 L88.4743887,8.76502151 L88.4743887,5.00183374 C88.4743887,3.99490102 88.0040721,3.48493867 87.1225583,3.48493867 C86.6885038,3.44943992 86.2608668,3.60679562 85.9539722,3.91493818 C85.6470777,4.22308074 85.492219,4.65058932 85.5307963,5.08317348 L85.5307963,8.76502151 L84.2831657,8.76502151 L84.2831095,0 Z" id="Path"></path>
                                    <path d="M96.9979998,7.06287905 C96.6481503,8.25200646 95.4941785,9.02031494 94.2586934,8.88669512 C93.415723,8.90888532 92.6055816,8.56045516 92.0432189,7.93385144 C91.4808561,7.30724773 91.2231245,6.4658173 91.3384063,5.63281169 C91.2261865,4.79749107 91.4829524,3.95471237 92.0421836,3.32281494 C92.6014148,2.6909175 93.408083,2.33207987 94.253204,2.3392664 C96.0122302,2.3392664 97.0734049,3.5376625 97.0734049,5.51725607 L97.0734049,5.95138066 L92.6093421,5.95138066 L92.6093421,6.02110043 C92.5698384,6.48889511 92.7300531,6.95160426 93.0505845,7.29543327 C93.3711158,7.63926228 93.8222225,7.83230804 94.2929633,7.82709456 C94.9033526,7.90016688 95.4975249,7.59824157 95.7969797,7.06283705 L96.9979998,7.06287905 Z M92.6093141,5.03124765 L95.8024269,5.03124765 C95.83423,4.60340965 95.6833715,4.18207351 95.3870277,3.87107015 C95.090684,3.56006679 94.6764152,3.3883197 94.2463107,3.39815296 C93.8103791,3.39269145 93.3907107,3.56301815 93.0825036,3.87049586 C92.7742965,4.17797356 92.6036746,4.59654029 92.6093421,5.03124765 L92.6093141,5.03124765 Z" id="Shape"></path>
                                </g>
                            </g>
                        </g>
                    </g>
                </g>
            </g>
        </g>
    </g>
</svg>