<?xml version="1.0" standalone="no"?>
<!DOCTYPE svg PUBLIC "-//W3C//DTD SVG 20010904//EN"
 "http://www.w3.org/TR/2001/REC-SVG-20010904/DTD/svg10.dtd">
<svg version="1.0" xmlns="http://www.w3.org/2000/svg"
 width="500.000000pt" height="500.000000pt" viewBox="0 0 500.000000 500.000000"
 preserveAspectRatio="xMidYMid meet">
<metadata>
Created by potrace 1.14, written by Peter Selinger 2001-2017
</metadata>
<g transform="translate(0.000000,500.000000) scale(0.100000,-0.100000)"
fill="#000000" stroke="none">
<path d="M1085 4989 c-262 -34 -545 -177 -731 -370 -188 -196 -311 -453 -344
-719 -6 -54 -10 -554 -10 -1410 0 -1417 0 -1408 50 -1590 30 -109 128 -302
203 -400 127 -166 265 -279 452 -371 132 -64 221 -92 365 -114 141 -22 2719
-22 2860 0 144 22 233 50 365 114 187 92 325 205 452 371 75 98 173 291 203
400 50 182 50 173 50 1590 0 856 -4 1356 -10 1410 -34 276 -173 555 -371 746
-196 188 -453 311 -719 344 -105 13 -2713 12 -2815 -1z m2413 -799 c33 -41
290 -454 306 -491 29 -71 30 -96 2 -124 -22 -21 -20 -30 5 -27 3 1 4 -10 1
-23 -3 -20 -13 -26 -60 -36 -33 -7 -50 -14 -42 -19 11 -7 -85 -29 -136 -31
-10 0 -13 -3 -6 -6 25 -10 11 -23 -27 -23 -22 0 -43 -4 -46 -10 -3 -5 -15 -10
-26 -10 -10 0 -19 -4 -19 -10 0 -5 -7 -10 -15 -10 -15 0 -56 -20 -65 -31 -3
-4 -24 -12 -48 -18 -23 -7 -40 -16 -37 -20 9 -16 -38 -20 -300 -28 -143 -4
-251 -9 -240 -11 44 -7 50 -15 20 -22 -29 -7 -29 -7 15 -16 l45 -8 -40 -7
c-22 -5 -57 -8 -77 -8 -40 -1 -54 -20 -15 -22 21 -1 21 -1 -3 -9 -21 -7 -22
-8 -5 -9 20 -2 20 -2 1 -16 -11 -8 -16 -15 -10 -16 5 -1 -2 -5 -16 -9 -23 -7
-22 -8 10 -10 19 -1 44 -5 55 -10 16 -7 12 -9 -20 -10 -30 -2 -34 -4 -18 -8
28 -9 18 -28 -17 -35 -21 -3 -19 -5 10 -7 33 -2 33 -3 10 -10 -23 -7 -23 -8
-4 -9 14 -1 24 -10 28 -26 l6 -25 360 0 359 0 6 -32 c3 -18 48 -355 100 -748
52 -393 97 -730 100 -747 l6 -33 -1151 0 -1151 0 6 33 c3 17 48 354 100 747
52 393 97 730 100 748 l6 32 361 0 c332 0 362 1 374 18 21 27 17 40 -13 45
-20 3 -14 5 17 6 25 2 38 5 30 8 -27 10 -30 28 -7 35 17 4 12 6 -18 8 l-40 2
40 13 c26 8 33 14 20 15 -12 1 -15 4 -7 7 10 4 10 8 1 19 -9 11 -8 14 7 15 14
1 13 3 -6 9 -24 8 -24 8 -2 9 38 2 24 21 -15 22 -21 0 -56 3 -78 8 l-40 7 45
9 45 8 -40 7 c-38 6 -37 9 5 23 8 3 -48 6 -125 7 -207 2 -385 14 -393 26 -4 6
-20 14 -36 18 -17 4 -41 15 -55 25 -14 10 -38 21 -53 25 -16 3 -28 11 -28 16
0 6 -9 10 -19 10 -11 0 -23 5 -26 10 -3 6 -24 10 -47 10 -31 0 -39 3 -35 14 4
11 -6 16 -36 21 -107 16 -112 18 -92 25 13 5 1 10 -43 19 -36 7 -60 16 -56 22
3 5 0 17 -7 25 -10 12 -9 13 5 8 21 -8 20 1 -5 35 -20 28 -20 31 -5 82 9 33
68 138 153 274 187 298 165 273 243 278 36 2 477 3 981 3 l917 -1 20 -25z
m359 -587 c-3 -10 -5 -4 -5 12 0 17 2 24 5 18 2 -7 2 -21 0 -30z m-2710 5 c-3
-8 -6 -5 -6 6 -1 11 2 17 5 13 3 -3 4 -12 1 -19z m259 -675 c-31 -187 -206
-1489 -206 -1528 0 -63 26 -107 79 -135 40 -20 52 -20 1218 -20 1140 0 1179 1
1220 20 55 25 83 70 83 135 0 38 -175 1337 -206 1528 l-6 38 88 -3 88 -3 88
-640 c173 -1271 171 -1252 142 -1338 -19 -56 -81 -129 -137 -161 -23 -14 -69
-29 -101 -35 -83 -15 -2429 -15 -2512 0 -74 13 -131 46 -182 104 -69 78 -84
160 -62 327 52 397 232 1726 235 1736 3 8 30 12 91 12 l86 0 -6 -37z"/>
</g>
</svg>
